REM DIRINDEX 1\2,1\3,1\4,1\6,1\5\7,1\5\8
REM DIRNAME folder01,folder02,folder03,folder04,folder05,folder06,folder07,folder08
TITLE ""
FILE "DB4500_5th_5C_05.mp3" MP3
  TRACK 01 AUDIO
    TITLE "0:"
    INDEX 01 00:00:00
  TRACK 02 AUDIO
    TITLE "2:cjc114_3363"
    INDEX 01 00:00:01
  TRACK 03 AUDIO
    TITLE "0:"
    INDEX 01 00:01:09
  TRACK 04 AUDIO
    TITLE "3:cjc114_3364"
    INDEX 01 00:01:26
  TRACK 05 AUDIO
    TITLE "0:"
    INDEX 01 00:02:51
  TRACK 06 AUDIO
    TITLE "4:cjc114_3365"
    INDEX 01 00:02:65
  TRACK 07 AUDIO
    TITLE "0:"
    INDEX 01 00:06:37
  TRACK 08 AUDIO
    TITLE "2:cjc114_3366"
    INDEX 01 00:07:00
  TRACK 09 AUDIO
    TITLE "0:"
    INDEX 01 00:08:13
  TRACK 10 AUDIO
    TITLE "3:cjc114_3367"
    INDEX 01 00:08:26
  TRACK 11 AUDIO
    TITLE "0:"
    INDEX 01 00:09:59
  TRACK 12 AUDIO
    TITLE "4:cjc114_3368"
    INDEX 01 00:09:73
  TRACK 13 AUDIO
    TITLE "0:"
    INDEX 01 00:13:06
  TRACK 14 AUDIO
    TITLE "2:cjc114_3369"
    INDEX 01 00:13:43
  TRACK 15 AUDIO
    TITLE "0:"
    INDEX 01 00:14:51
  TRACK 16 AUDIO
    TITLE "3:cjc114_3370"
    INDEX 01 00:14:66
  TRACK 17 AUDIO
    TITLE "0:"
    INDEX 01 00:15:66
  TRACK 18 AUDIO
    TITLE "4:cjc114_3371"
    INDEX 01 00:16:08
  TRACK 19 AUDIO
    TITLE "0:"
    INDEX 01 00:20:22
  TRACK 20 AUDIO
    TITLE "2:cjc114_3372"
    INDEX 01 00:20:57
  TRACK 21 AUDIO
    TITLE "0:"
    INDEX 01 00:21:70
  TRACK 22 AUDIO
    TITLE "3:cjc114_3373"
    INDEX 01 00:22:09
  TRACK 23 AUDIO
    TITLE "0:"
    INDEX 01 00:23:32
  TRACK 24 AUDIO
    TITLE "4:cjc114_3374"
    INDEX 01 00:23:46
  TRACK 25 AUDIO
    TITLE "0:"
    INDEX 01 00:26:66
  TRACK 26 AUDIO
    TITLE "2:cjc114_3375"
    INDEX 01 00:27:26
  TRACK 27 AUDIO
    TITLE "0:"
    INDEX 01 00:28:35
  TRACK 28 AUDIO
    TITLE "3:cjc114_3376"
    INDEX 01 00:28:51
  TRACK 29 AUDIO
    TITLE "0:"
    INDEX 01 00:29:56
  TRACK 30 AUDIO
    TITLE "4:cjc114_3377"
    INDEX 01 00:29:70
  TRACK 31 AUDIO
    TITLE "0:"
    INDEX 01 00:34:42
  TRACK 32 AUDIO
    TITLE "2:cjc114_3378"
    INDEX 01 00:35:02
  TRACK 33 AUDIO
    TITLE "0:"
    INDEX 01 00:36:21
  TRACK 34 AUDIO
    TITLE "3:cjc114_3379"
    INDEX 01 00:36:36
  TRACK 35 AUDIO
    TITLE "0:"
    INDEX 01 00:37:63
  TRACK 36 AUDIO
    TITLE "4:cjc114_3380"
    INDEX 01 00:38:02
  TRACK 37 AUDIO
    TITLE "0:"
    INDEX 01 00:42:10
  TRACK 38 AUDIO
    TITLE "2:cjc114_3381"
    INDEX 01 00:42:47
  TRACK 39 AUDIO
    TITLE "0:"
    INDEX 01 00:43:50
  TRACK 40 AUDIO
    TITLE "3:cjc114_3382"
    INDEX 01 00:43:64
  TRACK 41 AUDIO
    TITLE "0:"
    INDEX 01 00:44:73
  TRACK 42 AUDIO
    TITLE "4:cjc114_3383"
    INDEX 01 00:45:10
  TRACK 43 AUDIO
    TITLE "0:"
    INDEX 01 00:48:26
  TRACK 44 AUDIO
    TITLE "2:cjc114_3384"
    INDEX 01 00:48:65
  TRACK 45 AUDIO
    TITLE "0:"
    INDEX 01 00:50:05
  TRACK 46 AUDIO
    TITLE "3:cjc114_3385"
    INDEX 01 00:50:17
  TRACK 47 AUDIO
    TITLE "0:"
    INDEX 01 00:51:48
  TRACK 48 AUDIO
    TITLE "4:cjc114_3386"
    INDEX 01 00:51:63
  TRACK 49 AUDIO
    TITLE "0:"
    INDEX 01 00:55:10
  TRACK 50 AUDIO
    TITLE "2:cjc114_3387"
    INDEX 01 00:55:46
  TRACK 51 AUDIO
    TITLE "0:"
    INDEX 01 00:56:59
  TRACK 52 AUDIO
    TITLE "3:cjc114_3388"
    INDEX 01 00:56:72
  TRACK 53 AUDIO
    TITLE "0:"
    INDEX 01 00:58:13
  TRACK 54 AUDIO
    TITLE "4:cjc114_3389"
    INDEX 01 00:58:26
  TRACK 55 AUDIO
    TITLE "0:"
    INDEX 01 01:01:03
  TRACK 56 AUDIO
    TITLE "2:cjc114_3390"
    INDEX 01 01:01:40
  TRACK 57 AUDIO
    TITLE "0:"
    INDEX 01 01:02:54
  TRACK 58 AUDIO
    TITLE "3:cjc114_3391"
    INDEX 01 01:02:71
  TRACK 59 AUDIO
    TITLE "0:"
    INDEX 01 01:04:19
  TRACK 60 AUDIO
    TITLE "4:cjc114_3392"
    INDEX 01 01:04:31
  TRACK 61 AUDIO
    TITLE "0:"
    INDEX 01 01:07:25
  TRACK 62 AUDIO
    TITLE "2:cjc114_3393"
    INDEX 01 01:07:63
  TRACK 63 AUDIO
    TITLE "0:"
    INDEX 01 01:08:64
  TRACK 64 AUDIO
    TITLE "3:cjc114_3394"
    INDEX 01 01:09:03
  TRACK 65 AUDIO
    TITLE "0:"
    INDEX 01 01:10:02
  TRACK 66 AUDIO
    TITLE "4:cjc114_3395"
    INDEX 01 01:10:14
  TRACK 67 AUDIO
    TITLE "0:"
    INDEX 01 01:12:68
  TRACK 68 AUDIO
    TITLE "2:cjc114_3396"
    INDEX 01 01:13:28
  TRACK 69 AUDIO
    TITLE "0:"
    INDEX 01 01:14:23
  TRACK 70 AUDIO
    TITLE "3:cjc114_3397"
    INDEX 01 01:14:37
  TRACK 71 AUDIO
    TITLE "0:"
    INDEX 01 01:15:40
  TRACK 72 AUDIO
    TITLE "4:cjc114_3398"
    INDEX 01 01:15:56
  TRACK 73 AUDIO
    TITLE "0:"
    INDEX 01 01:18:23
